<svg width="186" height="212" viewBox="0 0 186 212" fill="none" xmlns="http://www.w3.org/2000/svg">
<path d="M183.5 136.5C182.519 145 174.18 160 167 160C159.82 160 159 145.598 159 134C159 122.402 173.32 110 180.5 110C187.68 110 185 123.5 183.5 136.5Z" fill="#B98E6A"/>
<path d="M18.9303 137.486C20.6483 145.868 30.2647 160.084 37.4182 159.458C44.5716 158.832 44.1337 144.413 43.1229 132.859C42.1121 121.306 26.7632 110.199 19.6097 110.825C12.4562 111.451 16.3028 124.666 18.9303 137.486Z" fill="#B98E6A"/>
<path d="M184.5 56C184.897 78.6546 176.451 119.301 166.5 133C139.114 170.699 87.4119 155.5 78.5 155.5C66.3497 155.5 -8 126 0.999998 15.5C0.999998 2.52131 3.84973 29 16 29C28.1503 29 183.5 -1 184.5 56Z" fill="black"/>
<path d="M166.5 132C166.5 150.134 159 165 149 178.5C144.495 184.582 137.625 191.27 128.5 198.5C121.122 204.345 112.27 211.5 102 211.5C90.0513 211.5 82.3253 205.57 74 198.5C67.6376 193.097 60.0932 187.517 55 180.5C44.7326 166.354 35.5 152.21 35.5 132C35.5 117.908 35.5 94.5 52.5 63.5C63.5 68 72.8467 76.5 99.5 76.5C113.378 77.014 125 73.5 139.5 65.5C166.5 76.5 166.5 110.929 166.5 132Z" fill="#CFA17A"/>
<path d="M171 29.3661C171 48.6961 143.369 84.8661 102.5 84.8661C81.5763 84.8661 58.1001 77.8076 38.5 62.3661C21.746 49.1668 19 40.8661 17 34.3661C15 27.8661 13 12.1548 13 5.86609C20.5 25.1684 92.5 2.86609 110.5 1.86612C119.783 1.3504 132.483 -2.06184 144.5 1.86612C158.372 6.40054 171 19.0085 171 29.3661Z" fill="#F0BF3F"/>
<path d="M43.5 122.5C42.5 118 42.5 114.5 42.5 114.5L42 112.5L46 102L61 100L82 103.5L90.5 109.5V115.5C90.5 115.5 90.2383 122.198 88 128C86.1253 132.86 82.3674 136.86 81 138C78 140.5 73.5 142 68.5 142C63.5 142 51 140.5 48 134.5C45 128.5 44.5 127 43.5 122.5Z" fill="#CBFFFF" stroke="#DEDEDE"/>
<path d="M158 122.5C159 118 159 114.5 159 114.5L159.5 112.5L155.5 102L140.5 100L119.5 103.5L111 109.5V115.5C111 115.5 111.262 122.198 113.5 128C115.375 132.86 119.133 136.86 120.5 138C123.5 140.5 128 142 133 142C138 142 150.5 140.5 153.5 134.5C156.5 128.5 157 127 158 122.5Z" fill="#CBFFFF" stroke="#DEDEDE"/>
<path d="M92 107C92 107 98 106.5 100.5 106.5C103 106.5 109 107 109 107V113.5C109 113.5 107.942 109.904 106.5 109.796C104.656 109.658 102.184 109.5 100.5 109.5C98.8161 109.5 96.3445 109.658 94.5 109.796C93.0585 109.904 92 113.5 92 113.5V107Z" fill="#DEDEDE"/>
<path d="M34 102L34.5 108C34.5 108 36 108 37 109.5C38 111 39.5 115 39.5 115C39.5 115 41 115.5 42 115.5C43 115.5 44.5 114.5 44.5 114.5C44.5 114.5 43.9082 109.092 47.5 105.5C50.1939 102.806 55.2857 101.571 64.5 102C73.7577 102.431 81.0482 104.327 85 107C87.9326 108.984 88.8595 111.884 89.5 113.5C90.0009 114.764 90 115 90.5 115C91 115 92 114.5 93 113C94 111.5 94 109 94 109C94 109 93.0592 106.583 86.5 104C81.413 101.997 71.5519 99.7184 65 99.5C50 99 34 102 34 102Z" fill="#774700"/>
<path d="M167 101.706L166.5 108.059C166.5 108.059 165 108.059 164 109.647C163 111.235 161.5 115.471 161.5 115.471C161.5 115.471 160 116 159 116C158 116 156.5 114.941 156.5 114.941C156.5 114.941 157.092 109.215 153.5 105.412C150.806 102.56 145.714 101.253 136.5 101.706C127.242 102.162 119.952 104.17 116 107C113.067 109.101 112.141 112.171 111.5 113.882C110.999 115.22 111 115.471 110.5 115.471C110 115.471 109 114.941 108 113.353C107 111.765 107 109.118 107 109.118C107 109.118 107.941 106.559 114.5 103.824C119.587 101.703 129.448 99.2908 136 99.0595C151 98.5301 167 101.706 167 101.706Z" fill="#774700"/>
<path d="M43.0466 105.253C43.0466 105.53 41.6569 106 40 106C38.3431 106 37.0466 105.53 37.0466 105.253C37.0466 104.977 38.3431 104.5 40 104.5C41.6569 104.5 43.0466 104.977 43.0466 105.253Z" fill="#C4C4C4"/>
<path d="M164 104.753C164 105.03 162.61 105.5 160.953 105.5C159.297 105.5 158 105.03 158 104.753C158 104.477 159.297 104 160.953 104C162.61 104 164 104.477 164 104.753Z" fill="#C4C4C4"/>
</svg>
