<?xml version="1.0" encoding="UTF-8"?>
<svg width="36px" height="36px" viewBox="0 0 36 36" version="1.1" xmlns="http://www.w3.org/2000/svg" xmlns:xlink="http://www.w3.org/1999/xlink">
    <!-- Generator: Sketch 58 (84663) - https://sketch.com -->
    <title>Combined Shape</title>
    <desc>Created with Sketch.</desc>
    <g id="Page-1" stroke="none" stroke-width="1" fill="none" fill-rule="evenodd">
        <g id="Artboard" transform="translate(-73.000000, -634.000000)" fill="#828282">
            <path d="M91,634 C100.941125,634 109,642.058875 109,652 C109,661.941125 100.941125,670 91,670 C81.0588745,670 73,661.941125 73,652 C73,642.058875 81.0588745,634 91,634 Z M94.8466667,644 C92.1975,644 90.2508333,646.585213 90.8491667,649.268919 C87.44,649.090238 84.4166667,647.38187 82.3925,644.785326 C81.3175,646.714212 81.835,649.237541 83.6616667,650.51533 C82.99,650.492668 82.3566667,650.300041 81.8041667,649.978415 C81.7591667,651.966571 83.1216667,653.8266 85.095,654.240617 C84.5175,654.404481 83.885,654.442832 83.2416667,654.313833 C83.7633333,656.018714 85.2783333,657.259024 87.075,657.293888 C85.35,658.708521 83.1766667,659.340443 81,659.071985 C82.8158333,660.289633 84.9733333,661 87.29,661 C94.9083333,661 99.2125,654.270252 98.9525,648.234311 C99.7541667,647.628538 100.45,646.872847 101,646.012562 C100.264167,646.354235 99.4733333,646.584342 98.6433333,646.688064 C99.4908333,646.15725 100.141667,645.31614 100.4475,644.313782 C99.655,644.805373 98.7766667,645.162736 97.8416667,645.355363 C97.0941667,644.521226 96.0266667,644 94.8466667,644 Z" id="Combined-Shape"></path>
        </g>
    </g>
</svg>