<?xml version="1.0" encoding="UTF-8"?>
<svg width="37px" height="31px" viewBox="0 0 37 31" version="1.1" xmlns="http://www.w3.org/2000/svg" xmlns:xlink="http://www.w3.org/1999/xlink">
    <!-- Generator: Sketch 58 (84663) - https://sketch.com -->
    <title>Group 28</title>
    <desc>Created with Sketch.</desc>
    <g id="Page-1" stroke="none" stroke-width="1" fill="none" fill-rule="evenodd">
        <g id="Artboard" transform="translate(-47.000000, -521.000000)">
            <g id="Group-28" transform="translate(46.000000, 518.000000)">
                <rect id="Rectangle" x="0" y="0" width="38" height="38"></rect>
                <g id="Group-23" transform="translate(1.000000, 3.000000)">
                    <g id="Group-9" transform="translate(0.000000, 12.056818)">
                        <polygon id="Rectangle" fill="#4A90E2" points="0.031824177 13.1892775 18.6508306 5.32720853 36.5869227 9.97944758 18.6508306 18.8682217"></polygon>
                        <polygon id="Rectangle" fill="#4A90E2" points="0.031824177 7.94789819 18.9382636 0.0858292231 18.9382636 5.32720853 0.031824177 13.1892775"></polygon>
                        <polygon id="Rectangle" stroke="#979797" stroke-width="0.2" fill="#FFFFFF" points="0.692538463 8.04575069 17.8711099 13.1892775 17.8711099 17.7754844 0.692538463 12.5341051"></polygon>
                        <polygon id="Rectangle" stroke="#979797" stroke-width="0.2" fill="#FFFFFF" points="17.8711099 13.1892775 34.388967 5.32720853 34.388967 9.91341543 17.8711099 17.7754844"></polygon>
                        <polygon id="Rectangle" fill="#4A90E2" points="-1.0658141e-14 8.00893305 18.6190064 -2.13162821e-14 36.5869227 5.32720853 18.2775493 13.4976504"></polygon>
                    </g>
                    <g id="Group-9" transform="translate(0.000000, 6.056818)">
                        <polygon id="Rectangle" fill="#417505" points="0.031824177 13.1892775 18.6508306 5.32720853 36.5869227 9.97944758 18.6508306 18.8682217"></polygon>
                        <polygon id="Rectangle" fill="#417505" points="0.031824177 7.94789819 18.9382636 0.0858292231 18.9382636 5.32720853 0.031824177 13.1892775"></polygon>
                        <polygon id="Rectangle" stroke="#979797" stroke-width="0.2" fill="#FFFFFF" points="0.692538463 8.04575069 17.8711099 13.1892775 17.8711099 17.7754844 0.692538463 12.5341051"></polygon>
                        <polygon id="Rectangle" stroke="#979797" stroke-width="0.2" fill="#FFFFFF" points="17.8711099 13.1892775 34.388967 5.32720853 34.388967 9.91341543 17.8711099 17.7754844"></polygon>
                        <polygon id="Rectangle" fill="#417505" points="-1.0658141e-14 8.00893305 18.6190064 -2.13162821e-14 36.5869227 5.32720853 18.2775493 13.4976504"></polygon>
                    </g>
                    <g id="Group-9" transform="translate(0.000000, 0.056818)">
                        <polygon id="Rectangle" fill="#D0021B" points="0.031824177 13.1892775 18.6508306 5.32720853 36.5869227 9.97944758 18.6508306 18.8682217"></polygon>
                        <polygon id="Rectangle" fill="#D0021B" points="0.031824177 7.94789819 18.9382636 0.0858292231 18.9382636 5.32720853 0.031824177 13.1892775"></polygon>
                        <polygon id="Rectangle" stroke="#979797" stroke-width="0.2" fill="#FFFFFF" points="0.692538463 8.04575069 17.8711099 13.1892775 17.8711099 17.7754844 0.692538463 12.5341051"></polygon>
                        <polygon id="Rectangle" stroke="#979797" stroke-width="0.2" fill="#FFFFFF" points="17.8711099 13.1892775 34.388967 5.32720853 34.388967 9.91341543 17.8711099 17.7754844"></polygon>
                        <polygon id="Rectangle" fill="#D0021B" points="-1.0658141e-14 8.00893305 18.6190064 -2.13162821e-14 36.5869227 5.32720853 18.2775493 13.4976504"></polygon>
                    </g>
                </g>
            </g>
        </g>
    </g>
</svg>