<?xml version="1.0" encoding="UTF-8"?>
<svg width="32px" height="38px" viewBox="0 0 32 38" version="1.1" xmlns="http://www.w3.org/2000/svg" xmlns:xlink="http://www.w3.org/1999/xlink">
    <!-- Generator: Sketch 58 (84663) - https://sketch.com -->
    <title>Group 51</title>
    <desc>Created with Sketch.</desc>
    <g id="Page-1" stroke="none" stroke-width="1" fill="none" fill-rule="evenodd">
        <g id="Artboard" transform="translate(-50.000000, -426.000000)">
            <g id="Group-51" transform="translate(46.000000, 426.000000)">
                <g id="Group-27">
                    <rect id="Rectangle" x="0" y="0" width="38" height="38"></rect>
                    <g id="Group-8" transform="translate(8.000000, 1.000000)">
                        <circle id="Oval" stroke="#979797" stroke-width="0.5" fill="#E5E5E5" cx="11" cy="32" r="4"></circle>
                        <path d="M11.3793103,30.982988 C12.5410426,30.982988 14.4099671,31.3055277 15.385799,29.141769 C15.9953182,27.7902532 16.1666613,24.3130918 16.5517738,22.8335062 C16.7707951,21.9920359 16.9340178,20.4713424 18.3584681,18.9637673 C20.473205,16.7256236 22,14.0876599 22,10.8779772 C22,4.8702363 17.0751322,0 11,0 C4.92486775,0 0,4.8702363 0,10.8779772 C0,13.8506392 1.13631318,16.6896903 3.16002791,18.5082704 C4.40940034,19.6309996 4.86903877,20.0187436 5.79289092,21.9920359 C6.53811496,23.5837893 6.41783849,27.48161 7.23186324,29.141769 C8.27440194,31.2679699 10.2732003,30.982988 11.3793103,30.982988 Z" id="Oval" stroke="#F2DD97" fill="#FDE9A4"></path>
                        <rect id="Rectangle" stroke="#AEAEAE" stroke-width="0.5" fill="#BCBCBC" x="5" y="26" width="12" height="1" rx="0.5"></rect>
                        <rect id="Rectangle" stroke="#AEAEAE" stroke-width="0.5" fill="#BCBCBC" x="5" y="27" width="12" height="1" rx="0.5"></rect>
                        <rect id="Rectangle" stroke="#AEAEAE" stroke-width="0.5" fill="#BCBCBC" x="5" y="28" width="12" height="1" rx="0.5"></rect>
                        <rect id="Rectangle" stroke="#AEAEAE" stroke-width="0.5" fill="#BCBCBC" x="5" y="29" width="12" height="1" rx="0.5"></rect>
                        <rect id="Rectangle" stroke="#AEAEAE" stroke-width="0.5" fill="#BCBCBC" x="5" y="30" width="12" height="1" rx="0.5"></rect>
                        <rect id="Rectangle" stroke="#AEAEAE" stroke-width="0.5" fill="#BCBCBC" x="5" y="31" width="12" height="1" rx="0.5"></rect>
                        <rect id="Rectangle" stroke="#AEAEAE" stroke-width="0.5" fill="#BCBCBC" x="5" y="32" width="12" height="1" rx="0.5"></rect>
                    </g>
                </g>
                <g id="Group-50" transform="translate(4.000000, 0.000000)" stroke="#FFFFFF" stroke-opacity="0.0" stroke-linecap="square">
                    <path d="M0.5,0.5 L6.5,0.5" id="Line-14"></path>
                    <path d="M0.5,0.5 L0.5,5.5" id="Line-14"></path>
                </g>
                <g id="Group-49" transform="translate(28.500000, 35.500000)" stroke="#FFFFFF" stroke-opacity="0.0" stroke-linecap="square">
                    <path d="M0.5,1.5 L6.5,1.5" id="Line-14"></path>
                    <path d="M6.5,1.5 L6.5,0.5" id="Line-15"></path>
                </g>
            </g>
        </g>
    </g>
</svg>