<svg width="186" height="212" viewBox="0 0 186 212" fill="none" xmlns="http://www.w3.org/2000/svg">
<path d="M183.254 136.5C182.273 145 173.933 160 166.754 160C159.574 160 158.754 145.598 158.754 134C158.754 122.402 173.074 110 180.254 110C187.433 110 184.754 123.5 183.254 136.5Z" fill="#B98E6A"/>
<path d="M18.6839 137.486C20.4019 145.868 30.0183 160.084 37.1717 159.458C44.3252 158.832 43.8873 144.413 42.8764 132.859C41.8656 121.306 26.5167 110.199 19.3633 110.825C12.2098 111.451 16.0563 124.666 18.6839 137.486Z" fill="#B98E6A"/>
<path d="M184.254 56C184.651 78.6546 176.205 119.301 166.254 133C138.868 170.699 87.1655 155.5 78.2536 155.5C66.1033 155.5 -8.24645 126 0.753554 15.5C0.753554 2.52135 3.60328 29 15.7535 29C27.9038 29 183.254 -0.999958 184.254 56Z" fill="black"/>
<path d="M166.254 132C166.254 150.134 158.754 165 148.754 178.5C144.248 184.582 137.379 191.27 128.254 198.5C120.876 204.345 112.023 211.5 101.754 211.5C89.8048 211.5 82.0789 205.57 73.7536 198.5C67.3911 193.097 59.8468 187.517 54.7536 180.5C44.4861 166.354 35.2536 152.21 35.2536 132C35.2536 117.908 35.2536 94.5 52.2536 63.5C63.2536 68 72.6003 76.5 99.2536 76.5C113.131 77.014 124.754 73.5 139.254 65.5C166.254 76.5 166.254 110.929 166.254 132Z" fill="#CFA17A"/>
<path d="M170.754 29.3661C170.754 48.6961 143.123 84.8661 102.254 84.8661C81.3299 84.8661 57.8537 77.8076 38.2535 62.3661C21.4995 49.1668 18.7536 40.8661 16.7536 34.3661C14.7536 27.8661 12.7536 12.1548 12.7536 5.86609C20.2536 25.1684 92.2536 2.86609 110.254 1.86612C119.537 1.3504 132.237 -2.06184 144.254 1.86612C158.125 6.40054 170.754 19.0085 170.754 29.3661Z" fill="#F0BF3F"/>
<path d="M43.2536 122.5C42.2536 118 42.2536 114.5 42.2536 114.5L41.7536 112.5L45.7536 102L60.7536 100L81.7536 103.5L90.2536 109.5V115.5C90.2536 115.5 89.9919 122.198 87.7536 128C85.8788 132.86 82.121 136.86 80.7536 138C77.7536 140.5 73.2536 142 68.2536 142C63.2536 142 50.7536 140.5 47.7536 134.5C44.7536 128.5 44.2536 127 43.2536 122.5Z" fill="#CBFFFF" stroke="#DEDEDE"/>
<path d="M157.754 122.5C158.754 118 158.754 114.5 158.754 114.5L159.254 112.5L155.254 102L140.254 100L119.254 103.5L110.754 109.5V115.5C110.754 115.5 111.015 122.198 113.254 128C115.128 132.86 118.886 136.86 120.254 138C123.254 140.5 127.754 142 132.754 142C137.754 142 150.254 140.5 153.254 134.5C156.254 128.5 156.754 127 157.754 122.5Z" fill="#CBFFFF" stroke="#DEDEDE"/>
<path d="M91.7536 107C91.7536 107 97.7536 106.5 100.254 106.5C102.754 106.5 108.754 107 108.754 107V113.5C108.754 113.5 107.695 109.904 106.254 109.796C104.409 109.658 101.937 109.5 100.254 109.5C98.5696 109.5 96.098 109.658 94.2536 109.796C92.812 109.904 91.7536 113.5 91.7536 113.5V107Z" fill="#DEDEDE"/>
<path d="M33.7536 102L34.2536 108C34.2536 108 35.7536 108 36.7536 109.5C37.7536 111 39.2536 115 39.2536 115C39.2536 115 40.7536 115.5 41.7536 115.5C42.7536 115.5 44.2536 114.5 44.2536 114.5C44.2536 114.5 43.6617 109.092 47.2536 105.5C49.9474 102.806 55.0393 101.571 64.2536 102C73.5112 102.431 80.8018 104.327 84.7536 107C87.6861 108.984 88.613 111.884 89.2536 113.5C89.7544 114.764 89.7536 115 90.2536 115C90.7536 115 91.7536 114.5 92.7536 113C93.7536 111.5 93.7536 109 93.7536 109C93.7536 109 92.8127 106.583 86.2536 104C81.1666 101.997 71.3055 99.7185 64.7536 99.5001C49.7536 99.0001 33.7536 102 33.7536 102Z" fill="#774700"/>
<path d="M166.754 101.706L166.254 108.059C166.254 108.059 164.754 108.059 163.754 109.647C162.754 111.235 161.254 115.471 161.254 115.471C161.254 115.471 159.754 116 158.754 116C157.754 116 156.254 114.941 156.254 114.941C156.254 114.941 156.845 109.215 153.254 105.412C150.56 102.56 145.468 101.253 136.254 101.706C126.996 102.162 119.705 104.17 115.754 107C112.821 109.101 111.894 112.171 111.254 113.882C110.753 115.22 110.754 115.471 110.254 115.471C109.754 115.471 108.754 114.941 107.754 113.353C106.754 111.765 106.754 109.118 106.754 109.118C106.754 109.118 107.694 106.559 114.254 103.824C119.341 101.703 129.202 99.2908 135.754 99.0595C150.754 98.5301 166.754 101.706 166.754 101.706Z" fill="#774700"/>
<path d="M42.8002 105.253C42.8002 105.53 41.4104 106 39.7536 106C38.0967 106 36.8002 105.53 36.8002 105.253C36.8002 104.977 38.0967 104.5 39.7536 104.5C41.4104 104.5 42.8002 104.977 42.8002 105.253Z" fill="#C4C4C4"/>
<path d="M163.754 104.753C163.754 105.03 162.364 105.5 160.707 105.5C159.05 105.5 157.754 105.03 157.754 104.753C157.754 104.477 159.05 104 160.707 104C162.364 104 163.754 104.477 163.754 104.753Z" fill="#C4C4C4"/>
</svg>
