<?xml version="1.0" encoding="UTF-8"?>
<svg width="37px" height="37px" viewBox="0 0 37 37" version="1.1" xmlns="http://www.w3.org/2000/svg" xmlns:xlink="http://www.w3.org/1999/xlink">
    <!-- Generator: Sketch 58 (84663) - https://sketch.com -->
    <title>Group 25</title>
    <desc>Created with Sketch.</desc>
    <g id="Page-1" stroke="none" stroke-width="1" fill="none" fill-rule="evenodd">
        <g id="Artboard" transform="translate(-47.000000, -244.000000)">
            <g id="Group-25" transform="translate(33.000000, 231.000000)">
                <rect id="Rectangle" x="14" y="14" width="38" height="38"></rect>
                <g id="Group-14" transform="translate(32.500000, 33.000000) rotate(-45.000000) translate(-32.500000, -33.000000) translate(10.000000, 10.000000)">
                    <g id="Group-13" transform="translate(0.439340, 18.353553)">
                        <polygon id="Rectangle" fill="#9C9C9C" points="16.9230769 2.66666667 31.9758748 2.66666667 34.9119426 0.888888889 43.504603 2.84673241 43.504603 5.0853857 34.9119426 7.11111111 31.9758748 5.33333333 16.9230769 5.33333333"></polygon>
                        <g id="Group-12">
                            <path d="M3.08582824,0 L14.7692308,0 C16.426085,1.167223e-15 17.7692308,1.34314575 17.7692308,3 L17.7692308,5 C17.7692308,6.65685425 16.426085,8 14.7692308,8 L3.08582595,8 C1.53785104,7.99999731 0.244038407,6.82221122 0.0990219484,5.28104395 C0.0330073161,4.57947124 0,4.15245659 0,4 C0,3.84754372 0.0330071815,3.42053051 0.0990215445,2.71896034 C0.244033886,1.17778895 1.53784961,2.84359061e-16 3.08582824,0 Z" id="Rectangle" fill="#D0021B"></path>
                            <path d="M3.07922558,4.44444444 L14.6289845,4.44444444 C14.8899599,4.44444444 15.1070406,4.64516112 15.1274527,4.90533702 L15.1884735,5.6831148 C15.2100719,5.95841122 15.004409,6.19909205 14.7291126,6.22069049 C14.7161018,6.22171125 14.703056,6.22222222 14.6900052,6.22222222 L3.14024629,6.22222222 C2.8792709,6.22222222 2.66219018,6.02150555 2.64177803,5.76132965 L2.58075732,4.98355187 C2.55915888,4.70825545 2.76482174,4.46757462 3.04011816,4.44597618 C3.05312898,4.44495541 3.06617478,4.44444444 3.07922558,4.44444444 Z" id="Rectangle" fill="#69020E"></path>
                            <path d="M3.07922558,1.77777778 L14.6289845,1.77777778 C14.8899599,1.77777778 15.1070406,1.97849445 15.1274527,2.23867035 L15.1884735,3.01644813 C15.2100719,3.29174455 15.004409,3.53242538 14.7291126,3.55402382 C14.7161018,3.55504459 14.703056,3.55555556 14.6900052,3.55555556 L3.14024629,3.55555556 C2.8792709,3.55555556 2.66219018,3.35483888 2.64177803,3.09466298 L2.58075732,2.3168852 C2.55915888,2.04158878 2.76482174,1.80090795 3.04011816,1.77930951 C3.05312898,1.77828875 3.06617478,1.77777778 3.07922558,1.77777778 Z" id="Rectangle" fill="#69020E" transform="translate(8.884615, 2.666667) scale(1, -1) translate(-8.884615, -2.666667) "></path>
                        </g>
                    </g>
                    <g id="Group-11" transform="translate(17.353553, 0.560660)">
                        <path d="M13,5.883665 C13,8.02848587 12.048699,9.94112164 10.5629627,11.1859508 L10.5625,40.8777688 C10.5625,43.1214256 8.7436568,44.9402688 6.5,44.9402688 C4.2563432,44.9402688 2.4375,43.1214256 2.4375,40.8777688 L2.43703731,11.1859508 C0.951300956,9.94112164 -5.68434189e-14,8.02848587 -5.68434189e-14,5.883665 C-5.68434189e-14,3.36966593 1.30697147,1.17466085 3.24961189,0.000156051507 L3.25,4.58177821 C3.25,6.23863246 4.59314575,7.58177821 6.25,7.58177821 L6.25,7.58177821 L6.75,7.58177821 C8.40685425,7.58177821 9.75,6.23863246 9.75,4.58177821 L9.75,4.58177821 L9.75138821,0.000760829229 C11.6934771,1.17541425 13,3.37009737 13,5.883665 Z M6.5,38.1478159 C5.15380592,38.1478159 4.0625,39.2882227 4.0625,40.6949858 C4.0625,42.1017488 5.15380592,43.2421556 6.5,43.2421556 C7.84619408,43.2421556 8.9375,42.1017488 8.9375,40.6949858 C8.9375,39.2882227 7.84619408,38.1478159 6.5,38.1478159 Z" id="Combined-Shape" fill="#4A4A4A"></path>
                        <rect id="Rectangle" stroke="#979797" stroke-width="0.5" fill="#D8D8D8" x="4.875" y="12.6761178" width="3.25" height="22.9245283" rx="1.625"></rect>
                    </g>
                </g>
            </g>
        </g>
    </g>
</svg>