<?xml version="1.0" encoding="UTF-8"?>
<svg width="51px" height="50px" viewBox="0 0 51 50" version="1.1" xmlns="http://www.w3.org/2000/svg" xmlns:xlink="http://www.w3.org/1999/xlink">
    <!-- Generator: Sketch 59.1 (86144) - https://sketch.com -->
    <title>Group</title>
    <desc>Created with Sketch.</desc>
    <g id="Page-1" stroke="none" stroke-width="1" fill="none" fill-rule="evenodd">
        <g id="iPhone-8" transform="translate(-72.000000, -90.000000)" stroke="#000000" stroke-width="2">
            <g id="Group" transform="translate(73.000000, 91.000000)">
                <ellipse id="Oval" fill="#BFB8A0" cx="11.5" cy="7" rx="7.5" ry="5"></ellipse>
                <ellipse id="Oval" fill="#BFB8A0" cx="37.5" cy="7" rx="7.5" ry="5"></ellipse>
                <rect id="Rectangle" fill="#D0021C" x="3" y="14" width="43" height="34" rx="2"></rect>
                <rect id="Rectangle" fill="#D0021C" x="0" y="10" width="49" height="11" rx="2"></rect>
                <rect id="Rectangle" fill="#FEE9A4" x="19" y="14" width="11" height="34"></rect>
                <rect id="Rectangle" fill="#FEE9A4" x="18" y="10" width="13" height="11"></rect>
                <rect id="Rectangle" fill="#FEE9A4" x="21" y="6" width="7" height="4"></rect>
                <path d="M11.7916667,0 C14.7252136,0 17.794658,1.9379845 21,5.81395349 L21,10 C17.3007916,8.15888166 14.4674583,6.99609096 12.5,6.51162791 C10.5325417,6.02716485 7.69920837,5.79460671 4,5.81395349 C6.26089754,1.9379845 8.85811976,0 11.7916667,0 Z" id="Rectangle" fill="#FEE9A4" stroke-linejoin="round"></path>
                <path d="M35.7916667,0 C38.7252136,0 41.794658,1.9379845 45,5.81395349 L45,10 C41.3007916,8.15888166 38.4674583,6.99609096 36.5,6.51162791 C34.5325417,6.02716485 31.6992084,5.79460671 28,5.81395349 C30.2608975,1.9379845 32.8581198,0 35.7916667,0 Z" id="Rectangle" fill="#FEE9A4" stroke-linejoin="round" transform="translate(36.500000, 5.000000) scale(-1, 1) translate(-36.500000, -5.000000) "></path>
            </g>
        </g>
    </g>
</svg>