<?xml version="1.0" encoding="UTF-8"?>
<svg width="36px" height="36px" viewBox="0 0 36 36" version="1.1" xmlns="http://www.w3.org/2000/svg" xmlns:xlink="http://www.w3.org/1999/xlink">
    <!-- Generator: Sketch 58 (84663) - https://sketch.com -->
    <title>Combined Shape</title>
    <desc>Created with Sketch.</desc>
    <g id="Page-1" stroke="none" stroke-width="1" fill="none" fill-rule="evenodd">
        <g id="Artboard" transform="translate(-136.000000, -690.000000)" fill="#828282">
            <path d="M154,690 C163.941125,690 172,698.058875 172,708 C172,717.941125 163.941125,726 154,726 C144.058875,726 136,717.941125 136,708 C136,698.058875 144.058875,690 154,690 Z M147.836875,700.163665 C144.427,700.400106 144.025375,702.492521 144,708 C144.025375,713.497701 144.4235,715.599005 147.836875,715.836335 C150.986875,716.05411 158.009625,716.054999 161.163125,715.836335 C164.573,715.599894 164.974625,713.507479 165,708 C164.974625,702.502299 164.5765,700.400995 161.163125,700.163665 C158.009625,699.945001 150.986,699.94589 147.836875,700.163665 Z M151.875,704.444494 L158.875,707.993778 L151.875,711.555506 L151.875,704.444494 Z" id="Combined-Shape"></path>
        </g>
    </g>
</svg>